; NON-PLATED HOLES START AT T1
; THROUGH (PLATED) HOLES START AT T100
M48
INCH
T1C0.110236
T100C0.038445
T101C0.078740
T102C0.038417
T103C0.086000
T104C0.035000
T105C0.042000
T106C0.039370
T107C0.040000
T108C0.027559
%
T1
X031362Y012202
X001834Y012202
X031362Y024407
X001834Y024407
T100
X020600Y020407
X026600Y020407
X017999Y020407
X011000Y020407
X013000Y020407
X019600Y020407
X008999Y020407
X021600Y020407
X015000Y020407
X017000Y020407
X025600Y020407
X023599Y020407
X009999Y020407
X012000Y020407
X014000Y020407
X022600Y020407
X016000Y020407
X024600Y020407
T101
X038716Y011163
X044716Y011163
X029251Y011163
X035251Y011163
X041251Y011163
X032716Y011163
T102
X025600Y001407
X014600Y001407
X012600Y001407
X018599Y001407
X016600Y001407
X024600Y001407
X022600Y001407
X026600Y001407
X013600Y001407
X019600Y001407
X017600Y001407
X023599Y001407
X015600Y001407
X021600Y001407
T103
X004968Y009360
X004968Y003454
T104
X012000Y010407
X016000Y013407
X039000Y022848
X033228Y025407
X006936Y007391
X016000Y012407
X015000Y007407
X006936Y005423
X002999Y009360
X035000Y025407
X002015Y004438
X033228Y022848
X016000Y010407
X039000Y025407
X037228Y025407
X012000Y013407
X002999Y003454
X002999Y006407
X012000Y012407
X011000Y007407
X037228Y022848
X035000Y022848
X002015Y008375
T105
X046500Y015907
X046500Y013907
X046500Y014907
X046500Y011907
X046500Y012907
T106
X043968Y008407
X030984Y008407
X030000Y008407
X036984Y008407
X036000Y008407
X042984Y008407
X042000Y008407
X031968Y008407
X037968Y008407
T107
X014000Y024407
X007999Y024407
X016000Y024407
X017000Y024407
X011000Y024407
X018000Y024407
X009000Y024407
X003999Y024407
X012000Y024407
X005999Y024407
X013000Y024407
X015000Y024407
X010000Y024407
X004999Y024407
X006999Y024407
X019000Y024407
T108
X031000Y005407
X037000Y005407
X043000Y005407
X032000Y005407
X038000Y005407
X042000Y005407
T00
M30
