G04 MADE WITH FRITZING*
G04 WWW.FRITZING.ORG*
G04 DOUBLE SIDED*
G04 HOLES PLATED*
G04 CONTOUR ON CENTER OF CONTOUR VECTOR*
%ASAXBY*%
%FSLAX23Y23*%
%MOIN*%
%OFA0B0*%
%SFA1.0B1.0*%
%ADD10C,0.075000*%
%ADD11C,0.126000*%
%ADD12C,0.078000*%
%ADD13C,0.066194*%
%ADD14C,0.066222*%
%ADD15C,0.074000*%
%ADD16C,0.098740*%
%ADD17C,0.065000*%
%ADD18C,0.024000*%
%ADD19R,0.001000X0.001000*%
%LNCOPPER1*%
G90*
G70*
G54D10*
X300Y345D03*
X202Y444D03*
X300Y641D03*
X202Y838D03*
X300Y936D03*
X694Y542D03*
G54D11*
X497Y936D03*
X497Y345D03*
G54D10*
X694Y739D03*
X1500Y741D03*
X1100Y741D03*
X1600Y1041D03*
X1200Y1041D03*
G54D12*
X4650Y1291D03*
X4650Y1391D03*
X4650Y1491D03*
X4650Y1591D03*
X4650Y1191D03*
G54D13*
X2260Y141D03*
X2360Y141D03*
X2460Y141D03*
X2560Y141D03*
X2660Y141D03*
G54D14*
X1800Y2041D03*
X1700Y2041D03*
X1600Y2041D03*
X1500Y2041D03*
X1400Y2041D03*
X1300Y2041D03*
X1200Y2041D03*
X1100Y2041D03*
X1000Y2041D03*
X900Y2041D03*
X2660Y2041D03*
X2560Y2041D03*
X2460Y2041D03*
X2360Y2041D03*
X2260Y2041D03*
X2160Y2041D03*
X2060Y2041D03*
X1960Y2041D03*
G54D13*
X1360Y141D03*
X1260Y141D03*
X1460Y141D03*
X1560Y141D03*
X1660Y141D03*
X1760Y141D03*
X1860Y141D03*
X1960Y141D03*
X2160Y141D03*
G54D10*
X3323Y2285D03*
X3323Y2541D03*
X3500Y2285D03*
X3500Y2541D03*
X3723Y2285D03*
X3723Y2541D03*
X3900Y2285D03*
X3900Y2541D03*
G54D15*
X3600Y841D03*
X3698Y841D03*
X3797Y841D03*
G54D16*
X3525Y1116D03*
X3872Y1116D03*
G54D15*
X3600Y841D03*
X3698Y841D03*
X3797Y841D03*
G54D16*
X3525Y1116D03*
X3872Y1116D03*
G54D15*
X3000Y841D03*
X3098Y841D03*
X3197Y841D03*
G54D16*
X2925Y1116D03*
X3272Y1116D03*
G54D15*
X3000Y841D03*
X3098Y841D03*
X3197Y841D03*
G54D16*
X2925Y1116D03*
X3272Y1116D03*
G54D15*
X4200Y841D03*
X4298Y841D03*
X4397Y841D03*
G54D16*
X4125Y1116D03*
X4472Y1116D03*
G54D15*
X4200Y841D03*
X4298Y841D03*
X4397Y841D03*
G54D16*
X4125Y1116D03*
X4472Y1116D03*
G54D15*
X400Y2441D03*
X500Y2441D03*
X600Y2441D03*
X700Y2441D03*
X800Y2441D03*
X900Y2441D03*
X1000Y2441D03*
X1100Y2441D03*
X1200Y2441D03*
X1300Y2441D03*
X1400Y2441D03*
X1500Y2441D03*
X1600Y2441D03*
X1700Y2441D03*
X1800Y2441D03*
X1900Y2441D03*
X400Y2441D03*
X500Y2441D03*
X600Y2441D03*
X700Y2441D03*
X800Y2441D03*
X900Y2441D03*
X1000Y2441D03*
X1100Y2441D03*
X1200Y2441D03*
X1300Y2441D03*
X1400Y2441D03*
X1500Y2441D03*
X1600Y2441D03*
X1700Y2441D03*
X1800Y2441D03*
X1900Y2441D03*
G54D10*
X1200Y1341D03*
X1600Y1341D03*
X1200Y1241D03*
X1600Y1241D03*
G54D17*
X3700Y541D03*
X3800Y541D03*
X3700Y541D03*
X3800Y541D03*
X3100Y541D03*
X3200Y541D03*
X3100Y541D03*
X3200Y541D03*
X4200Y541D03*
X4300Y541D03*
X4200Y541D03*
X4300Y541D03*
G54D18*
X2500Y2341D02*
X2500Y2541D01*
D02*
X1700Y2141D02*
X2728Y2141D01*
D02*
X1600Y2241D02*
X2600Y2241D01*
D02*
X1500Y2341D02*
X2500Y2341D01*
D02*
X2600Y2241D02*
X2600Y2641D01*
D02*
X2728Y2141D02*
X2700Y2741D01*
D02*
X2700Y2741D02*
X1500Y2741D01*
D02*
X1500Y2741D02*
X1500Y2472D01*
D02*
X2600Y2641D02*
X1600Y2641D01*
D02*
X1600Y2641D02*
X1600Y2472D01*
D02*
X2500Y2541D02*
X1700Y2541D01*
D02*
X1700Y2541D02*
X1700Y2472D01*
D02*
X1700Y2071D02*
X1700Y2141D01*
D02*
X1600Y2071D02*
X1600Y2241D01*
D02*
X1500Y2071D02*
X1500Y2341D01*
D02*
X700Y1841D02*
X700Y2141D01*
D02*
X1800Y1841D02*
X700Y1841D01*
D02*
X1400Y2141D02*
X1400Y2410D01*
D02*
X700Y2141D02*
X1400Y2141D01*
D02*
X1800Y2010D02*
X1800Y1841D01*
D02*
X2100Y1741D02*
X600Y1741D01*
D02*
X600Y1741D02*
X600Y2410D01*
D02*
X2154Y2011D02*
X2100Y1741D01*
D02*
X1200Y1269D02*
X1200Y1312D01*
D02*
X1700Y641D02*
X1000Y641D01*
D02*
X1756Y171D02*
X1700Y641D01*
D02*
X1000Y641D02*
X329Y641D01*
D02*
X1000Y641D02*
X1000Y1241D01*
D02*
X1000Y1241D02*
X1171Y1241D01*
D02*
X3200Y441D02*
X3197Y810D01*
D02*
X3797Y810D02*
X3804Y437D01*
D02*
X3804Y437D02*
X3200Y441D01*
D02*
X4404Y437D02*
X4397Y810D01*
D02*
X3804Y437D02*
X4404Y437D01*
D02*
X3900Y1441D02*
X3400Y1441D01*
D02*
X4404Y437D02*
X3900Y441D01*
D02*
X4500Y1741D02*
X2500Y1837D01*
D02*
X2500Y1837D02*
X2466Y2011D01*
D02*
X4627Y1613D02*
X4500Y1741D01*
D02*
X4500Y1441D02*
X4620Y1401D01*
D02*
X3900Y1441D02*
X4500Y1441D01*
D02*
X3400Y1441D02*
X3900Y1441D01*
D02*
X3400Y1441D02*
X1800Y1441D01*
D02*
X1800Y1441D02*
X1859Y171D01*
D02*
X3200Y441D02*
X3400Y441D01*
D02*
X3197Y810D02*
X3200Y441D01*
D02*
X4804Y437D02*
X4796Y1341D01*
D02*
X4796Y1341D02*
X4680Y1380D01*
D02*
X4404Y437D02*
X4804Y437D01*
G54D19*
X363Y2478D02*
X436Y2478D01*
X363Y2477D02*
X436Y2477D01*
X363Y2476D02*
X436Y2476D01*
X363Y2475D02*
X436Y2475D01*
X363Y2474D02*
X436Y2474D01*
X363Y2473D02*
X436Y2473D01*
X363Y2472D02*
X436Y2472D01*
X363Y2471D02*
X436Y2471D01*
X363Y2470D02*
X436Y2470D01*
X363Y2469D02*
X436Y2469D01*
X363Y2468D02*
X436Y2468D01*
X363Y2467D02*
X436Y2467D01*
X363Y2466D02*
X436Y2466D01*
X363Y2465D02*
X436Y2465D01*
X363Y2464D02*
X436Y2464D01*
X363Y2463D02*
X436Y2463D01*
X363Y2462D02*
X436Y2462D01*
X363Y2461D02*
X396Y2461D01*
X403Y2461D02*
X436Y2461D01*
X363Y2460D02*
X392Y2460D01*
X407Y2460D02*
X436Y2460D01*
X363Y2459D02*
X390Y2459D01*
X409Y2459D02*
X436Y2459D01*
X363Y2458D02*
X388Y2458D01*
X411Y2458D02*
X436Y2458D01*
X363Y2457D02*
X387Y2457D01*
X412Y2457D02*
X436Y2457D01*
X363Y2456D02*
X386Y2456D01*
X413Y2456D02*
X436Y2456D01*
X363Y2455D02*
X384Y2455D01*
X414Y2455D02*
X436Y2455D01*
X363Y2454D02*
X384Y2454D01*
X415Y2454D02*
X436Y2454D01*
X363Y2453D02*
X383Y2453D01*
X416Y2453D02*
X436Y2453D01*
X363Y2452D02*
X382Y2452D01*
X417Y2452D02*
X436Y2452D01*
X363Y2451D02*
X382Y2451D01*
X417Y2451D02*
X436Y2451D01*
X363Y2450D02*
X381Y2450D01*
X418Y2450D02*
X436Y2450D01*
X363Y2449D02*
X381Y2449D01*
X418Y2449D02*
X436Y2449D01*
X363Y2448D02*
X380Y2448D01*
X419Y2448D02*
X436Y2448D01*
X363Y2447D02*
X380Y2447D01*
X419Y2447D02*
X436Y2447D01*
X363Y2446D02*
X380Y2446D01*
X419Y2446D02*
X436Y2446D01*
X363Y2445D02*
X379Y2445D01*
X420Y2445D02*
X436Y2445D01*
X363Y2444D02*
X379Y2444D01*
X420Y2444D02*
X436Y2444D01*
X363Y2443D02*
X379Y2443D01*
X420Y2443D02*
X436Y2443D01*
X363Y2442D02*
X379Y2442D01*
X420Y2442D02*
X436Y2442D01*
X363Y2441D02*
X379Y2441D01*
X420Y2441D02*
X436Y2441D01*
X363Y2440D02*
X379Y2440D01*
X420Y2440D02*
X436Y2440D01*
X363Y2439D02*
X379Y2439D01*
X420Y2439D02*
X436Y2439D01*
X363Y2438D02*
X379Y2438D01*
X420Y2438D02*
X436Y2438D01*
X363Y2437D02*
X379Y2437D01*
X419Y2437D02*
X436Y2437D01*
X363Y2436D02*
X380Y2436D01*
X419Y2436D02*
X436Y2436D01*
X363Y2435D02*
X380Y2435D01*
X419Y2435D02*
X436Y2435D01*
X363Y2434D02*
X380Y2434D01*
X419Y2434D02*
X436Y2434D01*
X363Y2433D02*
X381Y2433D01*
X418Y2433D02*
X436Y2433D01*
X363Y2432D02*
X381Y2432D01*
X418Y2432D02*
X436Y2432D01*
X363Y2431D02*
X382Y2431D01*
X417Y2431D02*
X436Y2431D01*
X363Y2430D02*
X382Y2430D01*
X417Y2430D02*
X436Y2430D01*
X363Y2429D02*
X383Y2429D01*
X416Y2429D02*
X436Y2429D01*
X363Y2428D02*
X384Y2428D01*
X415Y2428D02*
X436Y2428D01*
X363Y2427D02*
X385Y2427D01*
X414Y2427D02*
X436Y2427D01*
X363Y2426D02*
X386Y2426D01*
X413Y2426D02*
X436Y2426D01*
X363Y2425D02*
X387Y2425D01*
X412Y2425D02*
X436Y2425D01*
X363Y2424D02*
X389Y2424D01*
X410Y2424D02*
X436Y2424D01*
X363Y2423D02*
X391Y2423D01*
X408Y2423D02*
X436Y2423D01*
X363Y2422D02*
X393Y2422D01*
X406Y2422D02*
X436Y2422D01*
X363Y2421D02*
X436Y2421D01*
X363Y2420D02*
X436Y2420D01*
X363Y2419D02*
X436Y2419D01*
X363Y2418D02*
X436Y2418D01*
X363Y2417D02*
X436Y2417D01*
X363Y2416D02*
X436Y2416D01*
X363Y2415D02*
X436Y2415D01*
X363Y2414D02*
X436Y2414D01*
X363Y2413D02*
X436Y2413D01*
X363Y2412D02*
X436Y2412D01*
X363Y2411D02*
X436Y2411D01*
X363Y2410D02*
X436Y2410D01*
X363Y2409D02*
X436Y2409D01*
X363Y2408D02*
X436Y2408D01*
X363Y2407D02*
X436Y2407D01*
X363Y2406D02*
X436Y2406D01*
X363Y2405D02*
X436Y2405D01*
X4646Y1630D02*
X4652Y1630D01*
X4641Y1629D02*
X4658Y1629D01*
X4637Y1628D02*
X4661Y1628D01*
X4635Y1627D02*
X4663Y1627D01*
X4633Y1626D02*
X4665Y1626D01*
X4631Y1625D02*
X4667Y1625D01*
X4629Y1624D02*
X4669Y1624D01*
X4628Y1623D02*
X4670Y1623D01*
X4627Y1622D02*
X4671Y1622D01*
X4625Y1621D02*
X4673Y1621D01*
X4624Y1620D02*
X4674Y1620D01*
X4623Y1619D02*
X4675Y1619D01*
X4622Y1618D02*
X4676Y1618D01*
X4621Y1617D02*
X4677Y1617D01*
X4620Y1616D02*
X4678Y1616D01*
X4619Y1615D02*
X4679Y1615D01*
X4619Y1614D02*
X4679Y1614D01*
X4618Y1613D02*
X4680Y1613D01*
X4617Y1612D02*
X4645Y1612D01*
X4653Y1612D02*
X4681Y1612D01*
X4617Y1611D02*
X4641Y1611D01*
X4657Y1611D02*
X4682Y1611D01*
X4616Y1610D02*
X4638Y1610D01*
X4660Y1610D02*
X4682Y1610D01*
X4615Y1609D02*
X4636Y1609D01*
X4662Y1609D02*
X4683Y1609D01*
X4615Y1608D02*
X4635Y1608D01*
X4663Y1608D02*
X4683Y1608D01*
X4614Y1607D02*
X4634Y1607D01*
X4664Y1607D02*
X4684Y1607D01*
X4614Y1606D02*
X4633Y1606D01*
X4665Y1606D02*
X4684Y1606D01*
X4613Y1605D02*
X4632Y1605D01*
X4666Y1605D02*
X4685Y1605D01*
X4613Y1604D02*
X4631Y1604D01*
X4667Y1604D02*
X4685Y1604D01*
X4613Y1603D02*
X4630Y1603D01*
X4668Y1603D02*
X4685Y1603D01*
X4612Y1602D02*
X4630Y1602D01*
X4668Y1602D02*
X4686Y1602D01*
X4612Y1601D02*
X4629Y1601D01*
X4669Y1601D02*
X4686Y1601D01*
X4612Y1600D02*
X4629Y1600D01*
X4669Y1600D02*
X4686Y1600D01*
X4611Y1599D02*
X4629Y1599D01*
X4669Y1599D02*
X4687Y1599D01*
X4611Y1598D02*
X4628Y1598D01*
X4670Y1598D02*
X4687Y1598D01*
X4611Y1597D02*
X4628Y1597D01*
X4670Y1597D02*
X4687Y1597D01*
X4611Y1596D02*
X4628Y1596D01*
X4670Y1596D02*
X4687Y1596D01*
X4611Y1595D02*
X4628Y1595D01*
X4670Y1595D02*
X4687Y1595D01*
X4611Y1594D02*
X4628Y1594D01*
X4670Y1594D02*
X4687Y1594D01*
X4611Y1593D02*
X4628Y1593D01*
X4670Y1593D02*
X4687Y1593D01*
X4611Y1592D02*
X4628Y1592D01*
X4671Y1592D02*
X4688Y1592D01*
X4611Y1591D02*
X4628Y1591D01*
X4671Y1591D02*
X4688Y1591D01*
X4611Y1590D02*
X4628Y1590D01*
X4670Y1590D02*
X4688Y1590D01*
X4611Y1589D02*
X4628Y1589D01*
X4670Y1589D02*
X4687Y1589D01*
X4611Y1588D02*
X4628Y1588D01*
X4670Y1588D02*
X4687Y1588D01*
X4611Y1587D02*
X4628Y1587D01*
X4670Y1587D02*
X4687Y1587D01*
X4611Y1586D02*
X4628Y1586D01*
X4670Y1586D02*
X4687Y1586D01*
X4611Y1585D02*
X4628Y1585D01*
X4670Y1585D02*
X4687Y1585D01*
X4611Y1584D02*
X4629Y1584D01*
X4670Y1584D02*
X4687Y1584D01*
X4612Y1583D02*
X4629Y1583D01*
X4669Y1583D02*
X4687Y1583D01*
X4612Y1582D02*
X4629Y1582D01*
X4669Y1582D02*
X4686Y1582D01*
X4612Y1581D02*
X4630Y1581D01*
X4668Y1581D02*
X4686Y1581D01*
X4612Y1580D02*
X4630Y1580D01*
X4668Y1580D02*
X4686Y1580D01*
X4613Y1579D02*
X4631Y1579D01*
X4667Y1579D02*
X4685Y1579D01*
X4613Y1578D02*
X4631Y1578D01*
X4667Y1578D02*
X4685Y1578D01*
X4614Y1577D02*
X4632Y1577D01*
X4666Y1577D02*
X4684Y1577D01*
X4614Y1576D02*
X4633Y1576D01*
X4665Y1576D02*
X4684Y1576D01*
X4615Y1575D02*
X4634Y1575D01*
X4664Y1575D02*
X4684Y1575D01*
X4615Y1574D02*
X4635Y1574D01*
X4663Y1574D02*
X4683Y1574D01*
X4616Y1573D02*
X4637Y1573D01*
X4661Y1573D02*
X4682Y1573D01*
X4616Y1572D02*
X4639Y1572D01*
X4659Y1572D02*
X4682Y1572D01*
X4617Y1571D02*
X4642Y1571D01*
X4656Y1571D02*
X4681Y1571D01*
X4617Y1570D02*
X4681Y1570D01*
X4618Y1569D02*
X4680Y1569D01*
X4619Y1568D02*
X4679Y1568D01*
X4620Y1567D02*
X4678Y1567D01*
X4621Y1566D02*
X4677Y1566D01*
X4622Y1565D02*
X4677Y1565D01*
X4623Y1564D02*
X4676Y1564D01*
X4624Y1563D02*
X4674Y1563D01*
X4625Y1562D02*
X4673Y1562D01*
X4626Y1561D02*
X4672Y1561D01*
X4627Y1560D02*
X4671Y1560D01*
X4629Y1559D02*
X4669Y1559D01*
X4630Y1558D02*
X4668Y1558D01*
X4632Y1557D02*
X4666Y1557D01*
X4634Y1556D02*
X4664Y1556D01*
X4636Y1555D02*
X4662Y1555D01*
X4639Y1554D02*
X4659Y1554D01*
X4642Y1553D02*
X4656Y1553D01*
X4646Y1530D02*
X4652Y1530D01*
X4641Y1529D02*
X4658Y1529D01*
X4637Y1528D02*
X4661Y1528D01*
X4635Y1527D02*
X4663Y1527D01*
X4633Y1526D02*
X4665Y1526D01*
X4631Y1525D02*
X4667Y1525D01*
X4629Y1524D02*
X4669Y1524D01*
X4628Y1523D02*
X4670Y1523D01*
X4627Y1522D02*
X4671Y1522D01*
X4625Y1521D02*
X4673Y1521D01*
X4624Y1520D02*
X4674Y1520D01*
X4623Y1519D02*
X4675Y1519D01*
X4622Y1518D02*
X4676Y1518D01*
X4621Y1517D02*
X4677Y1517D01*
X4620Y1516D02*
X4678Y1516D01*
X4619Y1515D02*
X4679Y1515D01*
X4619Y1514D02*
X4679Y1514D01*
X4618Y1513D02*
X4680Y1513D01*
X4617Y1512D02*
X4645Y1512D01*
X4653Y1512D02*
X4681Y1512D01*
X4617Y1511D02*
X4641Y1511D01*
X4658Y1511D02*
X4682Y1511D01*
X4616Y1510D02*
X4638Y1510D01*
X4660Y1510D02*
X4682Y1510D01*
X4615Y1509D02*
X4636Y1509D01*
X4662Y1509D02*
X4683Y1509D01*
X4615Y1508D02*
X4635Y1508D01*
X4663Y1508D02*
X4683Y1508D01*
X4614Y1507D02*
X4634Y1507D01*
X4664Y1507D02*
X4684Y1507D01*
X4614Y1506D02*
X4633Y1506D01*
X4665Y1506D02*
X4684Y1506D01*
X4613Y1505D02*
X4632Y1505D01*
X4666Y1505D02*
X4685Y1505D01*
X4613Y1504D02*
X4631Y1504D01*
X4667Y1504D02*
X4685Y1504D01*
X4613Y1503D02*
X4630Y1503D01*
X4668Y1503D02*
X4685Y1503D01*
X4612Y1502D02*
X4630Y1502D01*
X4668Y1502D02*
X4686Y1502D01*
X4612Y1501D02*
X4629Y1501D01*
X4669Y1501D02*
X4686Y1501D01*
X4612Y1500D02*
X4629Y1500D01*
X4669Y1500D02*
X4686Y1500D01*
X4611Y1499D02*
X4629Y1499D01*
X4669Y1499D02*
X4687Y1499D01*
X4611Y1498D02*
X4628Y1498D01*
X4670Y1498D02*
X4687Y1498D01*
X4611Y1497D02*
X4628Y1497D01*
X4670Y1497D02*
X4687Y1497D01*
X4611Y1496D02*
X4628Y1496D01*
X4670Y1496D02*
X4687Y1496D01*
X4611Y1495D02*
X4628Y1495D01*
X4670Y1495D02*
X4687Y1495D01*
X4611Y1494D02*
X4628Y1494D01*
X4670Y1494D02*
X4687Y1494D01*
X4611Y1493D02*
X4628Y1493D01*
X4670Y1493D02*
X4687Y1493D01*
X4611Y1492D02*
X4628Y1492D01*
X4671Y1492D02*
X4688Y1492D01*
X4611Y1491D02*
X4628Y1491D01*
X4671Y1491D02*
X4688Y1491D01*
X4611Y1490D02*
X4628Y1490D01*
X4670Y1490D02*
X4688Y1490D01*
X4611Y1489D02*
X4628Y1489D01*
X4670Y1489D02*
X4687Y1489D01*
X4611Y1488D02*
X4628Y1488D01*
X4670Y1488D02*
X4687Y1488D01*
X4611Y1487D02*
X4628Y1487D01*
X4670Y1487D02*
X4687Y1487D01*
X4611Y1486D02*
X4628Y1486D01*
X4670Y1486D02*
X4687Y1486D01*
X4611Y1485D02*
X4628Y1485D01*
X4670Y1485D02*
X4687Y1485D01*
X4611Y1484D02*
X4629Y1484D01*
X4670Y1484D02*
X4687Y1484D01*
X4612Y1483D02*
X4629Y1483D01*
X4669Y1483D02*
X4687Y1483D01*
X4612Y1482D02*
X4629Y1482D01*
X4669Y1482D02*
X4686Y1482D01*
X4612Y1481D02*
X4630Y1481D01*
X4668Y1481D02*
X4686Y1481D01*
X4612Y1480D02*
X4630Y1480D01*
X4668Y1480D02*
X4686Y1480D01*
X4613Y1479D02*
X4631Y1479D01*
X4667Y1479D02*
X4685Y1479D01*
X4613Y1478D02*
X4631Y1478D01*
X4667Y1478D02*
X4685Y1478D01*
X4614Y1477D02*
X4632Y1477D01*
X4666Y1477D02*
X4684Y1477D01*
X4614Y1476D02*
X4633Y1476D01*
X4665Y1476D02*
X4684Y1476D01*
X4615Y1475D02*
X4634Y1475D01*
X4664Y1475D02*
X4684Y1475D01*
X4615Y1474D02*
X4635Y1474D01*
X4663Y1474D02*
X4683Y1474D01*
X4616Y1473D02*
X4637Y1473D01*
X4661Y1473D02*
X4682Y1473D01*
X4616Y1472D02*
X4639Y1472D01*
X4659Y1472D02*
X4682Y1472D01*
X4617Y1471D02*
X4642Y1471D01*
X4656Y1471D02*
X4681Y1471D01*
X4617Y1470D02*
X4681Y1470D01*
X4618Y1469D02*
X4680Y1469D01*
X4619Y1468D02*
X4679Y1468D01*
X4620Y1467D02*
X4678Y1467D01*
X4621Y1466D02*
X4677Y1466D01*
X4622Y1465D02*
X4676Y1465D01*
X4623Y1464D02*
X4676Y1464D01*
X4624Y1463D02*
X4674Y1463D01*
X4625Y1462D02*
X4673Y1462D01*
X4626Y1461D02*
X4672Y1461D01*
X4627Y1460D02*
X4671Y1460D01*
X4629Y1459D02*
X4669Y1459D01*
X4630Y1458D02*
X4668Y1458D01*
X4632Y1457D02*
X4666Y1457D01*
X4634Y1456D02*
X4664Y1456D01*
X4636Y1455D02*
X4662Y1455D01*
X4639Y1454D02*
X4659Y1454D01*
X4642Y1453D02*
X4656Y1453D01*
X4646Y1430D02*
X4652Y1430D01*
X4640Y1429D02*
X4658Y1429D01*
X4637Y1428D02*
X4661Y1428D01*
X4635Y1427D02*
X4663Y1427D01*
X4633Y1426D02*
X4665Y1426D01*
X4631Y1425D02*
X4667Y1425D01*
X4629Y1424D02*
X4669Y1424D01*
X4628Y1423D02*
X4670Y1423D01*
X4627Y1422D02*
X4671Y1422D01*
X4625Y1421D02*
X4673Y1421D01*
X4624Y1420D02*
X4674Y1420D01*
X4623Y1419D02*
X4675Y1419D01*
X4622Y1418D02*
X4676Y1418D01*
X4621Y1417D02*
X4677Y1417D01*
X4620Y1416D02*
X4678Y1416D01*
X4619Y1415D02*
X4679Y1415D01*
X4619Y1414D02*
X4679Y1414D01*
X4618Y1413D02*
X4680Y1413D01*
X4617Y1412D02*
X4645Y1412D01*
X4653Y1412D02*
X4681Y1412D01*
X4617Y1411D02*
X4641Y1411D01*
X4658Y1411D02*
X4682Y1411D01*
X4616Y1410D02*
X4638Y1410D01*
X4660Y1410D02*
X4682Y1410D01*
X4615Y1409D02*
X4636Y1409D01*
X4662Y1409D02*
X4683Y1409D01*
X4615Y1408D02*
X4635Y1408D01*
X4663Y1408D02*
X4683Y1408D01*
X4614Y1407D02*
X4634Y1407D01*
X4664Y1407D02*
X4684Y1407D01*
X4614Y1406D02*
X4633Y1406D01*
X4665Y1406D02*
X4684Y1406D01*
X4613Y1405D02*
X4632Y1405D01*
X4666Y1405D02*
X4685Y1405D01*
X4613Y1404D02*
X4631Y1404D01*
X4667Y1404D02*
X4685Y1404D01*
X4613Y1403D02*
X4630Y1403D01*
X4668Y1403D02*
X4685Y1403D01*
X4612Y1402D02*
X4630Y1402D01*
X4668Y1402D02*
X4686Y1402D01*
X4612Y1401D02*
X4629Y1401D01*
X4669Y1401D02*
X4686Y1401D01*
X4612Y1400D02*
X4629Y1400D01*
X4669Y1400D02*
X4686Y1400D01*
X4611Y1399D02*
X4629Y1399D01*
X4669Y1399D02*
X4687Y1399D01*
X4611Y1398D02*
X4628Y1398D01*
X4670Y1398D02*
X4687Y1398D01*
X4611Y1397D02*
X4628Y1397D01*
X4670Y1397D02*
X4687Y1397D01*
X4611Y1396D02*
X4628Y1396D01*
X4670Y1396D02*
X4687Y1396D01*
X4611Y1395D02*
X4628Y1395D01*
X4670Y1395D02*
X4687Y1395D01*
X4611Y1394D02*
X4628Y1394D01*
X4670Y1394D02*
X4687Y1394D01*
X4611Y1393D02*
X4628Y1393D01*
X4670Y1393D02*
X4687Y1393D01*
X4611Y1392D02*
X4628Y1392D01*
X4671Y1392D02*
X4688Y1392D01*
X4611Y1391D02*
X4628Y1391D01*
X4671Y1391D02*
X4688Y1391D01*
X4611Y1390D02*
X4628Y1390D01*
X4670Y1390D02*
X4688Y1390D01*
X4611Y1389D02*
X4628Y1389D01*
X4670Y1389D02*
X4687Y1389D01*
X4611Y1388D02*
X4628Y1388D01*
X4670Y1388D02*
X4687Y1388D01*
X4611Y1387D02*
X4628Y1387D01*
X4670Y1387D02*
X4687Y1387D01*
X4611Y1386D02*
X4628Y1386D01*
X4670Y1386D02*
X4687Y1386D01*
X4611Y1385D02*
X4628Y1385D01*
X4670Y1385D02*
X4687Y1385D01*
X4611Y1384D02*
X4629Y1384D01*
X4670Y1384D02*
X4687Y1384D01*
X4612Y1383D02*
X4629Y1383D01*
X4669Y1383D02*
X4687Y1383D01*
X4612Y1382D02*
X4629Y1382D01*
X4669Y1382D02*
X4686Y1382D01*
X4612Y1381D02*
X4630Y1381D01*
X4668Y1381D02*
X4686Y1381D01*
X4612Y1380D02*
X4630Y1380D01*
X4668Y1380D02*
X4686Y1380D01*
X4613Y1379D02*
X4631Y1379D01*
X4667Y1379D02*
X4685Y1379D01*
X4613Y1378D02*
X4631Y1378D01*
X4667Y1378D02*
X4685Y1378D01*
X4614Y1377D02*
X4632Y1377D01*
X4666Y1377D02*
X4684Y1377D01*
X4614Y1376D02*
X4633Y1376D01*
X4665Y1376D02*
X4684Y1376D01*
X4615Y1375D02*
X4634Y1375D01*
X4664Y1375D02*
X4684Y1375D01*
X4615Y1374D02*
X4635Y1374D01*
X4663Y1374D02*
X4683Y1374D01*
X4616Y1373D02*
X4637Y1373D01*
X4661Y1373D02*
X4682Y1373D01*
X4616Y1372D02*
X4639Y1372D01*
X4659Y1372D02*
X4682Y1372D01*
X4617Y1371D02*
X4642Y1371D01*
X4656Y1371D02*
X4681Y1371D01*
X4617Y1370D02*
X4681Y1370D01*
X4618Y1369D02*
X4680Y1369D01*
X4619Y1368D02*
X4679Y1368D01*
X4620Y1367D02*
X4678Y1367D01*
X4621Y1366D02*
X4677Y1366D01*
X4622Y1365D02*
X4676Y1365D01*
X4623Y1364D02*
X4676Y1364D01*
X4624Y1363D02*
X4674Y1363D01*
X4625Y1362D02*
X4673Y1362D01*
X4626Y1361D02*
X4672Y1361D01*
X4627Y1360D02*
X4671Y1360D01*
X4629Y1359D02*
X4669Y1359D01*
X4630Y1358D02*
X4668Y1358D01*
X4632Y1357D02*
X4666Y1357D01*
X4634Y1356D02*
X4664Y1356D01*
X4636Y1355D02*
X4662Y1355D01*
X4639Y1354D02*
X4659Y1354D01*
X4642Y1353D02*
X4656Y1353D01*
X4646Y1330D02*
X4652Y1330D01*
X4640Y1329D02*
X4658Y1329D01*
X4637Y1328D02*
X4661Y1328D01*
X4635Y1327D02*
X4663Y1327D01*
X4633Y1326D02*
X4665Y1326D01*
X4631Y1325D02*
X4667Y1325D01*
X4629Y1324D02*
X4669Y1324D01*
X4628Y1323D02*
X4670Y1323D01*
X4627Y1322D02*
X4671Y1322D01*
X4625Y1321D02*
X4673Y1321D01*
X4624Y1320D02*
X4674Y1320D01*
X4623Y1319D02*
X4675Y1319D01*
X4622Y1318D02*
X4676Y1318D01*
X4621Y1317D02*
X4677Y1317D01*
X4620Y1316D02*
X4678Y1316D01*
X4619Y1315D02*
X4679Y1315D01*
X4619Y1314D02*
X4679Y1314D01*
X4618Y1313D02*
X4680Y1313D01*
X4617Y1312D02*
X4645Y1312D01*
X4653Y1312D02*
X4681Y1312D01*
X4617Y1311D02*
X4641Y1311D01*
X4658Y1311D02*
X4682Y1311D01*
X4616Y1310D02*
X4638Y1310D01*
X4660Y1310D02*
X4682Y1310D01*
X4615Y1309D02*
X4636Y1309D01*
X4662Y1309D02*
X4683Y1309D01*
X4615Y1308D02*
X4635Y1308D01*
X4663Y1308D02*
X4683Y1308D01*
X4614Y1307D02*
X4634Y1307D01*
X4664Y1307D02*
X4684Y1307D01*
X4614Y1306D02*
X4633Y1306D01*
X4665Y1306D02*
X4684Y1306D01*
X4613Y1305D02*
X4632Y1305D01*
X4666Y1305D02*
X4685Y1305D01*
X4613Y1304D02*
X4631Y1304D01*
X4667Y1304D02*
X4685Y1304D01*
X4613Y1303D02*
X4630Y1303D01*
X4668Y1303D02*
X4685Y1303D01*
X4612Y1302D02*
X4630Y1302D01*
X4668Y1302D02*
X4686Y1302D01*
X4612Y1301D02*
X4629Y1301D01*
X4669Y1301D02*
X4686Y1301D01*
X4612Y1300D02*
X4629Y1300D01*
X4669Y1300D02*
X4686Y1300D01*
X4611Y1299D02*
X4629Y1299D01*
X4669Y1299D02*
X4687Y1299D01*
X4611Y1298D02*
X4628Y1298D01*
X4670Y1298D02*
X4687Y1298D01*
X4611Y1297D02*
X4628Y1297D01*
X4670Y1297D02*
X4687Y1297D01*
X4611Y1296D02*
X4628Y1296D01*
X4670Y1296D02*
X4687Y1296D01*
X4611Y1295D02*
X4628Y1295D01*
X4670Y1295D02*
X4687Y1295D01*
X4611Y1294D02*
X4628Y1294D01*
X4670Y1294D02*
X4687Y1294D01*
X4611Y1293D02*
X4628Y1293D01*
X4670Y1293D02*
X4687Y1293D01*
X4611Y1292D02*
X4628Y1292D01*
X4671Y1292D02*
X4688Y1292D01*
X4611Y1291D02*
X4628Y1291D01*
X4671Y1291D02*
X4688Y1291D01*
X4611Y1290D02*
X4628Y1290D01*
X4670Y1290D02*
X4688Y1290D01*
X4611Y1289D02*
X4628Y1289D01*
X4670Y1289D02*
X4687Y1289D01*
X4611Y1288D02*
X4628Y1288D01*
X4670Y1288D02*
X4687Y1288D01*
X4611Y1287D02*
X4628Y1287D01*
X4670Y1287D02*
X4687Y1287D01*
X4611Y1286D02*
X4628Y1286D01*
X4670Y1286D02*
X4687Y1286D01*
X4611Y1285D02*
X4628Y1285D01*
X4670Y1285D02*
X4687Y1285D01*
X4611Y1284D02*
X4629Y1284D01*
X4670Y1284D02*
X4687Y1284D01*
X4612Y1283D02*
X4629Y1283D01*
X4669Y1283D02*
X4687Y1283D01*
X4612Y1282D02*
X4629Y1282D01*
X4669Y1282D02*
X4686Y1282D01*
X4612Y1281D02*
X4630Y1281D01*
X4668Y1281D02*
X4686Y1281D01*
X4612Y1280D02*
X4630Y1280D01*
X4668Y1280D02*
X4686Y1280D01*
X4613Y1279D02*
X4631Y1279D01*
X4667Y1279D02*
X4685Y1279D01*
X4613Y1278D02*
X4631Y1278D01*
X4667Y1278D02*
X4685Y1278D01*
X4614Y1277D02*
X4632Y1277D01*
X4666Y1277D02*
X4684Y1277D01*
X4614Y1276D02*
X4633Y1276D01*
X4665Y1276D02*
X4684Y1276D01*
X4615Y1275D02*
X4634Y1275D01*
X4664Y1275D02*
X4684Y1275D01*
X4615Y1274D02*
X4635Y1274D01*
X4663Y1274D02*
X4683Y1274D01*
X4616Y1273D02*
X4637Y1273D01*
X4661Y1273D02*
X4682Y1273D01*
X4616Y1272D02*
X4639Y1272D01*
X4659Y1272D02*
X4682Y1272D01*
X4617Y1271D02*
X4642Y1271D01*
X4656Y1271D02*
X4681Y1271D01*
X4617Y1270D02*
X4681Y1270D01*
X4618Y1269D02*
X4680Y1269D01*
X4619Y1268D02*
X4679Y1268D01*
X4620Y1267D02*
X4678Y1267D01*
X4621Y1266D02*
X4677Y1266D01*
X4622Y1265D02*
X4676Y1265D01*
X4623Y1264D02*
X4676Y1264D01*
X4624Y1263D02*
X4674Y1263D01*
X4625Y1262D02*
X4673Y1262D01*
X4626Y1261D02*
X4672Y1261D01*
X4627Y1260D02*
X4671Y1260D01*
X4629Y1259D02*
X4669Y1259D01*
X4630Y1258D02*
X4668Y1258D01*
X4632Y1257D02*
X4666Y1257D01*
X4634Y1256D02*
X4664Y1256D01*
X4636Y1255D02*
X4662Y1255D01*
X4639Y1254D02*
X4659Y1254D01*
X4642Y1253D02*
X4656Y1253D01*
X4646Y1230D02*
X4652Y1230D01*
X4640Y1229D02*
X4658Y1229D01*
X4637Y1228D02*
X4661Y1228D01*
X4635Y1227D02*
X4663Y1227D01*
X4633Y1226D02*
X4665Y1226D01*
X4631Y1225D02*
X4667Y1225D01*
X4629Y1224D02*
X4669Y1224D01*
X4628Y1223D02*
X4670Y1223D01*
X4627Y1222D02*
X4671Y1222D01*
X4625Y1221D02*
X4673Y1221D01*
X4624Y1220D02*
X4674Y1220D01*
X4623Y1219D02*
X4675Y1219D01*
X4622Y1218D02*
X4676Y1218D01*
X4621Y1217D02*
X4677Y1217D01*
X4620Y1216D02*
X4678Y1216D01*
X4619Y1215D02*
X4679Y1215D01*
X4619Y1214D02*
X4679Y1214D01*
X4618Y1213D02*
X4680Y1213D01*
X4617Y1212D02*
X4645Y1212D01*
X4653Y1212D02*
X4681Y1212D01*
X4617Y1211D02*
X4641Y1211D01*
X4658Y1211D02*
X4682Y1211D01*
X4616Y1210D02*
X4638Y1210D01*
X4660Y1210D02*
X4682Y1210D01*
X4615Y1209D02*
X4636Y1209D01*
X4662Y1209D02*
X4683Y1209D01*
X4615Y1208D02*
X4635Y1208D01*
X4663Y1208D02*
X4683Y1208D01*
X4614Y1207D02*
X4634Y1207D01*
X4664Y1207D02*
X4684Y1207D01*
X4614Y1206D02*
X4633Y1206D01*
X4665Y1206D02*
X4684Y1206D01*
X4613Y1205D02*
X4632Y1205D01*
X4666Y1205D02*
X4685Y1205D01*
X4613Y1204D02*
X4631Y1204D01*
X4667Y1204D02*
X4685Y1204D01*
X4613Y1203D02*
X4630Y1203D01*
X4668Y1203D02*
X4685Y1203D01*
X4612Y1202D02*
X4630Y1202D01*
X4668Y1202D02*
X4686Y1202D01*
X4612Y1201D02*
X4629Y1201D01*
X4669Y1201D02*
X4686Y1201D01*
X4612Y1200D02*
X4629Y1200D01*
X4669Y1200D02*
X4686Y1200D01*
X4611Y1199D02*
X4629Y1199D01*
X4669Y1199D02*
X4687Y1199D01*
X4611Y1198D02*
X4628Y1198D01*
X4670Y1198D02*
X4687Y1198D01*
X4611Y1197D02*
X4628Y1197D01*
X4670Y1197D02*
X4687Y1197D01*
X4611Y1196D02*
X4628Y1196D01*
X4670Y1196D02*
X4687Y1196D01*
X4611Y1195D02*
X4628Y1195D01*
X4670Y1195D02*
X4687Y1195D01*
X4611Y1194D02*
X4628Y1194D01*
X4670Y1194D02*
X4687Y1194D01*
X4611Y1193D02*
X4628Y1193D01*
X4670Y1193D02*
X4687Y1193D01*
X4611Y1192D02*
X4628Y1192D01*
X4671Y1192D02*
X4688Y1192D01*
X4611Y1191D02*
X4628Y1191D01*
X4671Y1191D02*
X4688Y1191D01*
X4611Y1190D02*
X4628Y1190D01*
X4670Y1190D02*
X4688Y1190D01*
X4611Y1189D02*
X4628Y1189D01*
X4670Y1189D02*
X4687Y1189D01*
X4611Y1188D02*
X4628Y1188D01*
X4670Y1188D02*
X4687Y1188D01*
X4611Y1187D02*
X4628Y1187D01*
X4670Y1187D02*
X4687Y1187D01*
X4611Y1186D02*
X4628Y1186D01*
X4670Y1186D02*
X4687Y1186D01*
X4611Y1185D02*
X4628Y1185D01*
X4670Y1185D02*
X4687Y1185D01*
X4611Y1184D02*
X4629Y1184D01*
X4670Y1184D02*
X4687Y1184D01*
X4612Y1183D02*
X4629Y1183D01*
X4669Y1183D02*
X4687Y1183D01*
X4612Y1182D02*
X4629Y1182D01*
X4669Y1182D02*
X4686Y1182D01*
X4612Y1181D02*
X4630Y1181D01*
X4668Y1181D02*
X4686Y1181D01*
X4612Y1180D02*
X4630Y1180D01*
X4668Y1180D02*
X4686Y1180D01*
X4613Y1179D02*
X4631Y1179D01*
X4667Y1179D02*
X4685Y1179D01*
X4613Y1178D02*
X4631Y1178D01*
X4667Y1178D02*
X4685Y1178D01*
X4614Y1177D02*
X4632Y1177D01*
X4666Y1177D02*
X4684Y1177D01*
X4614Y1176D02*
X4633Y1176D01*
X4665Y1176D02*
X4684Y1176D01*
X4615Y1175D02*
X4634Y1175D01*
X4664Y1175D02*
X4684Y1175D01*
X4615Y1174D02*
X4635Y1174D01*
X4663Y1174D02*
X4683Y1174D01*
X4616Y1173D02*
X4637Y1173D01*
X4661Y1173D02*
X4682Y1173D01*
X4616Y1172D02*
X4639Y1172D01*
X4659Y1172D02*
X4682Y1172D01*
X4617Y1171D02*
X4642Y1171D01*
X4656Y1171D02*
X4681Y1171D01*
X4617Y1170D02*
X4681Y1170D01*
X4618Y1169D02*
X4680Y1169D01*
X4619Y1168D02*
X4679Y1168D01*
X4620Y1167D02*
X4678Y1167D01*
X4621Y1166D02*
X4677Y1166D01*
X4622Y1165D02*
X4676Y1165D01*
X4623Y1164D02*
X4676Y1164D01*
X4624Y1163D02*
X4674Y1163D01*
X4625Y1162D02*
X4673Y1162D01*
X4626Y1161D02*
X4672Y1161D01*
X4627Y1160D02*
X4671Y1160D01*
X4629Y1159D02*
X4669Y1159D01*
X4630Y1158D02*
X4668Y1158D01*
X4632Y1157D02*
X4666Y1157D01*
X4634Y1156D02*
X4664Y1156D01*
X4636Y1155D02*
X4662Y1155D01*
X4639Y1154D02*
X4659Y1154D01*
X4642Y1153D02*
X4656Y1153D01*
X2963Y878D02*
X3035Y878D01*
X3061Y878D02*
X3134Y878D01*
X3160Y878D02*
X3232Y878D01*
X3563Y878D02*
X3635Y878D01*
X3661Y878D02*
X3734Y878D01*
X3760Y878D02*
X3832Y878D01*
X4163Y878D02*
X4235Y878D01*
X4261Y878D02*
X4334Y878D01*
X4360Y878D02*
X4432Y878D01*
X2963Y877D02*
X3036Y877D01*
X3061Y877D02*
X3134Y877D01*
X3160Y877D02*
X3233Y877D01*
X3563Y877D02*
X3636Y877D01*
X3661Y877D02*
X3734Y877D01*
X3759Y877D02*
X3832Y877D01*
X4163Y877D02*
X4236Y877D01*
X4261Y877D02*
X4334Y877D01*
X4359Y877D02*
X4432Y877D01*
X2963Y876D02*
X3036Y876D01*
X3061Y876D02*
X3134Y876D01*
X3160Y876D02*
X3233Y876D01*
X3563Y876D02*
X3636Y876D01*
X3661Y876D02*
X3734Y876D01*
X3759Y876D02*
X3832Y876D01*
X4163Y876D02*
X4236Y876D01*
X4261Y876D02*
X4334Y876D01*
X4359Y876D02*
X4432Y876D01*
X2963Y875D02*
X3036Y875D01*
X3061Y875D02*
X3134Y875D01*
X3160Y875D02*
X3233Y875D01*
X3563Y875D02*
X3636Y875D01*
X3661Y875D02*
X3734Y875D01*
X3759Y875D02*
X3832Y875D01*
X4163Y875D02*
X4236Y875D01*
X4261Y875D02*
X4334Y875D01*
X4359Y875D02*
X4432Y875D01*
X2963Y874D02*
X3036Y874D01*
X3061Y874D02*
X3134Y874D01*
X3160Y874D02*
X3233Y874D01*
X3563Y874D02*
X3636Y874D01*
X3661Y874D02*
X3734Y874D01*
X3759Y874D02*
X3832Y874D01*
X4163Y874D02*
X4236Y874D01*
X4261Y874D02*
X4334Y874D01*
X4359Y874D02*
X4432Y874D01*
X2963Y873D02*
X3036Y873D01*
X3061Y873D02*
X3134Y873D01*
X3160Y873D02*
X3233Y873D01*
X3563Y873D02*
X3636Y873D01*
X3661Y873D02*
X3734Y873D01*
X3759Y873D02*
X3832Y873D01*
X4163Y873D02*
X4236Y873D01*
X4261Y873D02*
X4334Y873D01*
X4359Y873D02*
X4432Y873D01*
X2963Y872D02*
X3036Y872D01*
X3061Y872D02*
X3134Y872D01*
X3160Y872D02*
X3233Y872D01*
X3563Y872D02*
X3636Y872D01*
X3661Y872D02*
X3734Y872D01*
X3759Y872D02*
X3832Y872D01*
X4163Y872D02*
X4236Y872D01*
X4261Y872D02*
X4334Y872D01*
X4359Y872D02*
X4432Y872D01*
X2963Y871D02*
X3036Y871D01*
X3061Y871D02*
X3134Y871D01*
X3160Y871D02*
X3233Y871D01*
X3563Y871D02*
X3636Y871D01*
X3661Y871D02*
X3734Y871D01*
X3759Y871D02*
X3832Y871D01*
X4163Y871D02*
X4236Y871D01*
X4261Y871D02*
X4334Y871D01*
X4359Y871D02*
X4432Y871D01*
X2963Y870D02*
X3036Y870D01*
X3061Y870D02*
X3134Y870D01*
X3160Y870D02*
X3233Y870D01*
X3563Y870D02*
X3636Y870D01*
X3661Y870D02*
X3734Y870D01*
X3759Y870D02*
X3832Y870D01*
X4163Y870D02*
X4236Y870D01*
X4261Y870D02*
X4334Y870D01*
X4359Y870D02*
X4432Y870D01*
X2963Y869D02*
X3036Y869D01*
X3061Y869D02*
X3134Y869D01*
X3160Y869D02*
X3233Y869D01*
X3563Y869D02*
X3636Y869D01*
X3661Y869D02*
X3734Y869D01*
X3759Y869D02*
X3832Y869D01*
X4163Y869D02*
X4236Y869D01*
X4261Y869D02*
X4334Y869D01*
X4359Y869D02*
X4432Y869D01*
X2963Y868D02*
X3036Y868D01*
X3061Y868D02*
X3134Y868D01*
X3160Y868D02*
X3233Y868D01*
X3563Y868D02*
X3636Y868D01*
X3661Y868D02*
X3734Y868D01*
X3759Y868D02*
X3832Y868D01*
X4163Y868D02*
X4236Y868D01*
X4261Y868D02*
X4334Y868D01*
X4359Y868D02*
X4432Y868D01*
X2963Y867D02*
X3036Y867D01*
X3061Y867D02*
X3134Y867D01*
X3160Y867D02*
X3233Y867D01*
X3563Y867D02*
X3636Y867D01*
X3661Y867D02*
X3734Y867D01*
X3759Y867D02*
X3832Y867D01*
X4163Y867D02*
X4236Y867D01*
X4261Y867D02*
X4334Y867D01*
X4359Y867D02*
X4432Y867D01*
X2963Y866D02*
X3036Y866D01*
X3061Y866D02*
X3134Y866D01*
X3160Y866D02*
X3233Y866D01*
X3563Y866D02*
X3636Y866D01*
X3661Y866D02*
X3734Y866D01*
X3759Y866D02*
X3832Y866D01*
X4163Y866D02*
X4236Y866D01*
X4261Y866D02*
X4334Y866D01*
X4359Y866D02*
X4432Y866D01*
X2963Y865D02*
X3036Y865D01*
X3061Y865D02*
X3134Y865D01*
X3160Y865D02*
X3233Y865D01*
X3563Y865D02*
X3636Y865D01*
X3661Y865D02*
X3734Y865D01*
X3759Y865D02*
X3832Y865D01*
X4163Y865D02*
X4236Y865D01*
X4261Y865D02*
X4334Y865D01*
X4359Y865D02*
X4432Y865D01*
X2963Y864D02*
X3036Y864D01*
X3061Y864D02*
X3134Y864D01*
X3160Y864D02*
X3233Y864D01*
X3563Y864D02*
X3636Y864D01*
X3661Y864D02*
X3734Y864D01*
X3759Y864D02*
X3832Y864D01*
X4163Y864D02*
X4236Y864D01*
X4261Y864D02*
X4334Y864D01*
X4359Y864D02*
X4432Y864D01*
X2963Y863D02*
X3036Y863D01*
X3061Y863D02*
X3134Y863D01*
X3160Y863D02*
X3233Y863D01*
X3563Y863D02*
X3636Y863D01*
X3661Y863D02*
X3734Y863D01*
X3759Y863D02*
X3832Y863D01*
X4163Y863D02*
X4236Y863D01*
X4261Y863D02*
X4334Y863D01*
X4359Y863D02*
X4432Y863D01*
X2963Y862D02*
X3036Y862D01*
X3061Y862D02*
X3134Y862D01*
X3160Y862D02*
X3233Y862D01*
X3563Y862D02*
X3636Y862D01*
X3661Y862D02*
X3734Y862D01*
X3759Y862D02*
X3832Y862D01*
X4163Y862D02*
X4236Y862D01*
X4261Y862D02*
X4334Y862D01*
X4359Y862D02*
X4432Y862D01*
X2963Y861D02*
X3036Y861D01*
X3061Y861D02*
X3134Y861D01*
X3160Y861D02*
X3233Y861D01*
X3563Y861D02*
X3636Y861D01*
X3661Y861D02*
X3734Y861D01*
X3759Y861D02*
X3832Y861D01*
X4163Y861D02*
X4236Y861D01*
X4261Y861D02*
X4334Y861D01*
X4359Y861D02*
X4432Y861D01*
X2963Y860D02*
X2993Y860D01*
X3006Y860D02*
X3036Y860D01*
X3061Y860D02*
X3091Y860D01*
X3104Y860D02*
X3134Y860D01*
X3160Y860D02*
X3190Y860D01*
X3202Y860D02*
X3233Y860D01*
X3563Y860D02*
X3593Y860D01*
X3606Y860D02*
X3636Y860D01*
X3661Y860D02*
X3691Y860D01*
X3704Y860D02*
X3734Y860D01*
X3759Y860D02*
X3790Y860D01*
X3802Y860D02*
X3832Y860D01*
X4163Y860D02*
X4193Y860D01*
X4205Y860D02*
X4236Y860D01*
X4261Y860D02*
X4291Y860D01*
X4304Y860D02*
X4334Y860D01*
X4359Y860D02*
X4389Y860D01*
X4402Y860D02*
X4432Y860D01*
X2963Y859D02*
X2990Y859D01*
X3008Y859D02*
X3036Y859D01*
X3061Y859D02*
X3089Y859D01*
X3107Y859D02*
X3134Y859D01*
X3160Y859D02*
X3187Y859D01*
X3205Y859D02*
X3233Y859D01*
X3563Y859D02*
X3590Y859D01*
X3608Y859D02*
X3636Y859D01*
X3661Y859D02*
X3689Y859D01*
X3707Y859D02*
X3734Y859D01*
X3759Y859D02*
X3787Y859D01*
X3805Y859D02*
X3832Y859D01*
X4163Y859D02*
X4190Y859D01*
X4208Y859D02*
X4236Y859D01*
X4261Y859D02*
X4289Y859D01*
X4306Y859D02*
X4334Y859D01*
X4359Y859D02*
X4387Y859D01*
X4405Y859D02*
X4432Y859D01*
X2963Y858D02*
X2988Y858D01*
X3010Y858D02*
X3036Y858D01*
X3061Y858D02*
X3087Y858D01*
X3108Y858D02*
X3134Y858D01*
X3160Y858D02*
X3185Y858D01*
X3207Y858D02*
X3233Y858D01*
X3563Y858D02*
X3588Y858D01*
X3610Y858D02*
X3636Y858D01*
X3661Y858D02*
X3687Y858D01*
X3708Y858D02*
X3734Y858D01*
X3759Y858D02*
X3785Y858D01*
X3807Y858D02*
X3832Y858D01*
X4163Y858D02*
X4188Y858D01*
X4210Y858D02*
X4236Y858D01*
X4261Y858D02*
X4287Y858D01*
X4308Y858D02*
X4334Y858D01*
X4359Y858D02*
X4385Y858D01*
X4407Y858D02*
X4432Y858D01*
X2963Y857D02*
X2987Y857D01*
X3011Y857D02*
X3036Y857D01*
X3061Y857D02*
X3085Y857D01*
X3110Y857D02*
X3134Y857D01*
X3160Y857D02*
X3184Y857D01*
X3208Y857D02*
X3233Y857D01*
X3563Y857D02*
X3587Y857D01*
X3611Y857D02*
X3636Y857D01*
X3661Y857D02*
X3685Y857D01*
X3710Y857D02*
X3734Y857D01*
X3759Y857D02*
X3784Y857D01*
X3808Y857D02*
X3832Y857D01*
X4163Y857D02*
X4187Y857D01*
X4211Y857D02*
X4236Y857D01*
X4261Y857D02*
X4285Y857D01*
X4310Y857D02*
X4334Y857D01*
X4359Y857D02*
X4384Y857D01*
X4408Y857D02*
X4432Y857D01*
X2963Y856D02*
X2986Y856D01*
X3013Y856D02*
X3036Y856D01*
X3061Y856D02*
X3084Y856D01*
X3111Y856D02*
X3134Y856D01*
X3160Y856D02*
X3183Y856D01*
X3210Y856D02*
X3233Y856D01*
X3563Y856D02*
X3586Y856D01*
X3613Y856D02*
X3636Y856D01*
X3661Y856D02*
X3684Y856D01*
X3711Y856D02*
X3734Y856D01*
X3759Y856D02*
X3782Y856D01*
X3809Y856D02*
X3832Y856D01*
X4163Y856D02*
X4186Y856D01*
X4213Y856D02*
X4236Y856D01*
X4261Y856D02*
X4284Y856D01*
X4311Y856D02*
X4334Y856D01*
X4359Y856D02*
X4382Y856D01*
X4409Y856D02*
X4432Y856D01*
X2963Y855D02*
X2985Y855D01*
X3014Y855D02*
X3036Y855D01*
X3061Y855D02*
X3083Y855D01*
X3112Y855D02*
X3134Y855D01*
X3160Y855D02*
X3181Y855D01*
X3211Y855D02*
X3233Y855D01*
X3563Y855D02*
X3585Y855D01*
X3614Y855D02*
X3636Y855D01*
X3661Y855D02*
X3683Y855D01*
X3712Y855D02*
X3734Y855D01*
X3759Y855D02*
X3781Y855D01*
X3811Y855D02*
X3832Y855D01*
X4163Y855D02*
X4185Y855D01*
X4214Y855D02*
X4236Y855D01*
X4261Y855D02*
X4283Y855D01*
X4312Y855D02*
X4334Y855D01*
X4359Y855D02*
X4381Y855D01*
X4410Y855D02*
X4432Y855D01*
X2963Y854D02*
X2984Y854D01*
X3015Y854D02*
X3036Y854D01*
X3061Y854D02*
X3082Y854D01*
X3113Y854D02*
X3134Y854D01*
X3160Y854D02*
X3181Y854D01*
X3211Y854D02*
X3233Y854D01*
X3563Y854D02*
X3584Y854D01*
X3615Y854D02*
X3636Y854D01*
X3661Y854D02*
X3682Y854D01*
X3713Y854D02*
X3734Y854D01*
X3759Y854D02*
X3780Y854D01*
X3811Y854D02*
X3832Y854D01*
X4163Y854D02*
X4184Y854D01*
X4215Y854D02*
X4236Y854D01*
X4261Y854D02*
X4282Y854D01*
X4313Y854D02*
X4334Y854D01*
X4359Y854D02*
X4380Y854D01*
X4411Y854D02*
X4432Y854D01*
X2963Y853D02*
X2983Y853D01*
X3015Y853D02*
X3036Y853D01*
X3061Y853D02*
X3081Y853D01*
X3114Y853D02*
X3134Y853D01*
X3160Y853D02*
X3180Y853D01*
X3212Y853D02*
X3233Y853D01*
X3563Y853D02*
X3583Y853D01*
X3615Y853D02*
X3636Y853D01*
X3661Y853D02*
X3681Y853D01*
X3714Y853D02*
X3734Y853D01*
X3759Y853D02*
X3780Y853D01*
X3812Y853D02*
X3832Y853D01*
X4163Y853D02*
X4183Y853D01*
X4215Y853D02*
X4236Y853D01*
X4261Y853D02*
X4281Y853D01*
X4314Y853D02*
X4334Y853D01*
X4359Y853D02*
X4380Y853D01*
X4412Y853D02*
X4432Y853D01*
X2963Y852D02*
X2982Y852D01*
X3016Y852D02*
X3036Y852D01*
X3061Y852D02*
X3081Y852D01*
X3115Y852D02*
X3134Y852D01*
X3160Y852D02*
X3179Y852D01*
X3213Y852D02*
X3233Y852D01*
X3563Y852D02*
X3582Y852D01*
X3616Y852D02*
X3636Y852D01*
X3661Y852D02*
X3681Y852D01*
X3715Y852D02*
X3734Y852D01*
X3759Y852D02*
X3779Y852D01*
X3813Y852D02*
X3832Y852D01*
X4163Y852D02*
X4182Y852D01*
X4216Y852D02*
X4236Y852D01*
X4261Y852D02*
X4281Y852D01*
X4314Y852D02*
X4334Y852D01*
X4359Y852D02*
X4379Y852D01*
X4413Y852D02*
X4432Y852D01*
X2963Y851D02*
X2982Y851D01*
X3017Y851D02*
X3036Y851D01*
X3061Y851D02*
X3080Y851D01*
X3115Y851D02*
X3134Y851D01*
X3160Y851D02*
X3178Y851D01*
X3214Y851D02*
X3233Y851D01*
X3563Y851D02*
X3582Y851D01*
X3617Y851D02*
X3636Y851D01*
X3661Y851D02*
X3680Y851D01*
X3715Y851D02*
X3734Y851D01*
X3759Y851D02*
X3778Y851D01*
X3814Y851D02*
X3832Y851D01*
X4163Y851D02*
X4181Y851D01*
X4217Y851D02*
X4236Y851D01*
X4261Y851D02*
X4280Y851D01*
X4315Y851D02*
X4334Y851D01*
X4359Y851D02*
X4378Y851D01*
X4413Y851D02*
X4432Y851D01*
X2963Y850D02*
X2981Y850D01*
X3017Y850D02*
X3036Y850D01*
X3061Y850D02*
X3079Y850D01*
X3116Y850D02*
X3134Y850D01*
X3160Y850D02*
X3178Y850D01*
X3214Y850D02*
X3233Y850D01*
X3563Y850D02*
X3581Y850D01*
X3617Y850D02*
X3636Y850D01*
X3661Y850D02*
X3679Y850D01*
X3716Y850D02*
X3734Y850D01*
X3759Y850D02*
X3778Y850D01*
X3814Y850D02*
X3832Y850D01*
X4163Y850D02*
X4181Y850D01*
X4217Y850D02*
X4236Y850D01*
X4261Y850D02*
X4279Y850D01*
X4316Y850D02*
X4334Y850D01*
X4359Y850D02*
X4378Y850D01*
X4414Y850D02*
X4432Y850D01*
X2963Y849D02*
X2981Y849D01*
X3018Y849D02*
X3036Y849D01*
X3061Y849D02*
X3079Y849D01*
X3116Y849D02*
X3134Y849D01*
X3160Y849D02*
X3177Y849D01*
X3215Y849D02*
X3233Y849D01*
X3563Y849D02*
X3581Y849D01*
X3618Y849D02*
X3636Y849D01*
X3661Y849D02*
X3679Y849D01*
X3716Y849D02*
X3734Y849D01*
X3759Y849D02*
X3777Y849D01*
X3815Y849D02*
X3832Y849D01*
X4163Y849D02*
X4180Y849D01*
X4218Y849D02*
X4236Y849D01*
X4261Y849D02*
X4279Y849D01*
X4316Y849D02*
X4334Y849D01*
X4359Y849D02*
X4377Y849D01*
X4414Y849D02*
X4432Y849D01*
X2963Y848D02*
X2980Y848D01*
X3018Y848D02*
X3036Y848D01*
X3061Y848D02*
X3079Y848D01*
X3117Y848D02*
X3134Y848D01*
X3160Y848D02*
X3177Y848D01*
X3215Y848D02*
X3233Y848D01*
X3563Y848D02*
X3580Y848D01*
X3618Y848D02*
X3636Y848D01*
X3661Y848D02*
X3679Y848D01*
X3717Y848D02*
X3734Y848D01*
X3759Y848D02*
X3777Y848D01*
X3815Y848D02*
X3832Y848D01*
X4163Y848D02*
X4180Y848D01*
X4218Y848D02*
X4236Y848D01*
X4261Y848D02*
X4278Y848D01*
X4316Y848D02*
X4334Y848D01*
X4359Y848D02*
X4377Y848D01*
X4415Y848D02*
X4432Y848D01*
X2963Y847D02*
X2980Y847D01*
X3019Y847D02*
X3036Y847D01*
X3061Y847D02*
X3078Y847D01*
X3117Y847D02*
X3134Y847D01*
X3160Y847D02*
X3177Y847D01*
X3215Y847D02*
X3233Y847D01*
X3563Y847D02*
X3580Y847D01*
X3618Y847D02*
X3636Y847D01*
X3661Y847D02*
X3678Y847D01*
X3717Y847D02*
X3734Y847D01*
X3759Y847D02*
X3777Y847D01*
X3815Y847D02*
X3832Y847D01*
X4163Y847D02*
X4180Y847D01*
X4218Y847D02*
X4236Y847D01*
X4261Y847D02*
X4278Y847D01*
X4317Y847D02*
X4334Y847D01*
X4359Y847D02*
X4377Y847D01*
X4415Y847D02*
X4432Y847D01*
X2963Y846D02*
X2980Y846D01*
X3019Y846D02*
X3036Y846D01*
X3061Y846D02*
X3078Y846D01*
X3117Y846D02*
X3134Y846D01*
X3160Y846D02*
X3176Y846D01*
X3216Y846D02*
X3233Y846D01*
X3563Y846D02*
X3580Y846D01*
X3619Y846D02*
X3636Y846D01*
X3661Y846D02*
X3678Y846D01*
X3717Y846D02*
X3734Y846D01*
X3759Y846D02*
X3776Y846D01*
X3816Y846D02*
X3832Y846D01*
X4163Y846D02*
X4179Y846D01*
X4219Y846D02*
X4236Y846D01*
X4261Y846D02*
X4278Y846D01*
X4317Y846D02*
X4334Y846D01*
X4359Y846D02*
X4376Y846D01*
X4415Y846D02*
X4432Y846D01*
X2963Y845D02*
X2979Y845D01*
X3019Y845D02*
X3036Y845D01*
X3061Y845D02*
X3078Y845D01*
X3117Y845D02*
X3134Y845D01*
X3160Y845D02*
X3176Y845D01*
X3216Y845D02*
X3233Y845D01*
X3563Y845D02*
X3579Y845D01*
X3619Y845D02*
X3636Y845D01*
X3661Y845D02*
X3678Y845D01*
X3717Y845D02*
X3734Y845D01*
X3759Y845D02*
X3776Y845D01*
X3816Y845D02*
X3832Y845D01*
X4163Y845D02*
X4179Y845D01*
X4219Y845D02*
X4236Y845D01*
X4261Y845D02*
X4278Y845D01*
X4317Y845D02*
X4334Y845D01*
X4359Y845D02*
X4376Y845D01*
X4416Y845D02*
X4432Y845D01*
X2963Y844D02*
X2979Y844D01*
X3019Y844D02*
X3036Y844D01*
X3061Y844D02*
X3078Y844D01*
X3118Y844D02*
X3134Y844D01*
X3160Y844D02*
X3176Y844D01*
X3216Y844D02*
X3233Y844D01*
X3563Y844D02*
X3579Y844D01*
X3619Y844D02*
X3636Y844D01*
X3661Y844D02*
X3678Y844D01*
X3718Y844D02*
X3734Y844D01*
X3759Y844D02*
X3776Y844D01*
X3816Y844D02*
X3832Y844D01*
X4163Y844D02*
X4179Y844D01*
X4219Y844D02*
X4236Y844D01*
X4261Y844D02*
X4277Y844D01*
X4317Y844D02*
X4334Y844D01*
X4359Y844D02*
X4376Y844D01*
X4416Y844D02*
X4432Y844D01*
X2963Y843D02*
X2979Y843D01*
X3019Y843D02*
X3036Y843D01*
X3061Y843D02*
X3078Y843D01*
X3118Y843D02*
X3134Y843D01*
X3160Y843D02*
X3176Y843D01*
X3216Y843D02*
X3233Y843D01*
X3563Y843D02*
X3579Y843D01*
X3619Y843D02*
X3636Y843D01*
X3661Y843D02*
X3677Y843D01*
X3718Y843D02*
X3734Y843D01*
X3759Y843D02*
X3776Y843D01*
X3816Y843D02*
X3832Y843D01*
X4163Y843D02*
X4179Y843D01*
X4219Y843D02*
X4236Y843D01*
X4261Y843D02*
X4277Y843D01*
X4318Y843D02*
X4334Y843D01*
X4359Y843D02*
X4376Y843D01*
X4416Y843D02*
X4432Y843D01*
X2963Y842D02*
X2979Y842D01*
X3019Y842D02*
X3036Y842D01*
X3061Y842D02*
X3077Y842D01*
X3118Y842D02*
X3134Y842D01*
X3160Y842D02*
X3176Y842D01*
X3216Y842D02*
X3233Y842D01*
X3563Y842D02*
X3579Y842D01*
X3619Y842D02*
X3636Y842D01*
X3661Y842D02*
X3677Y842D01*
X3718Y842D02*
X3734Y842D01*
X3759Y842D02*
X3776Y842D01*
X3816Y842D02*
X3832Y842D01*
X4163Y842D02*
X4179Y842D01*
X4219Y842D02*
X4236Y842D01*
X4261Y842D02*
X4277Y842D01*
X4318Y842D02*
X4334Y842D01*
X4359Y842D02*
X4376Y842D01*
X4416Y842D02*
X4432Y842D01*
X2963Y841D02*
X2979Y841D01*
X3019Y841D02*
X3036Y841D01*
X3061Y841D02*
X3077Y841D01*
X3118Y841D02*
X3134Y841D01*
X3160Y841D02*
X3176Y841D01*
X3216Y841D02*
X3233Y841D01*
X3563Y841D02*
X3579Y841D01*
X3619Y841D02*
X3636Y841D01*
X3661Y841D02*
X3677Y841D01*
X3718Y841D02*
X3734Y841D01*
X3759Y841D02*
X3776Y841D01*
X3816Y841D02*
X3832Y841D01*
X4163Y841D02*
X4179Y841D01*
X4219Y841D02*
X4236Y841D01*
X4261Y841D02*
X4277Y841D01*
X4318Y841D02*
X4334Y841D01*
X4359Y841D02*
X4376Y841D01*
X4416Y841D02*
X4432Y841D01*
X2963Y840D02*
X2979Y840D01*
X3019Y840D02*
X3036Y840D01*
X3061Y840D02*
X3077Y840D01*
X3118Y840D02*
X3134Y840D01*
X3160Y840D02*
X3176Y840D01*
X3216Y840D02*
X3233Y840D01*
X3563Y840D02*
X3579Y840D01*
X3619Y840D02*
X3636Y840D01*
X3661Y840D02*
X3677Y840D01*
X3718Y840D02*
X3734Y840D01*
X3759Y840D02*
X3776Y840D01*
X3816Y840D02*
X3832Y840D01*
X4163Y840D02*
X4179Y840D01*
X4219Y840D02*
X4236Y840D01*
X4261Y840D02*
X4277Y840D01*
X4318Y840D02*
X4334Y840D01*
X4359Y840D02*
X4376Y840D01*
X4416Y840D02*
X4432Y840D01*
X2963Y839D02*
X2979Y839D01*
X3019Y839D02*
X3036Y839D01*
X3061Y839D02*
X3078Y839D01*
X3118Y839D02*
X3134Y839D01*
X3160Y839D02*
X3176Y839D01*
X3216Y839D02*
X3233Y839D01*
X3563Y839D02*
X3579Y839D01*
X3619Y839D02*
X3636Y839D01*
X3661Y839D02*
X3677Y839D01*
X3718Y839D02*
X3734Y839D01*
X3759Y839D02*
X3776Y839D01*
X3816Y839D02*
X3832Y839D01*
X4163Y839D02*
X4179Y839D01*
X4219Y839D02*
X4236Y839D01*
X4261Y839D02*
X4277Y839D01*
X4318Y839D02*
X4334Y839D01*
X4359Y839D02*
X4376Y839D01*
X4416Y839D02*
X4432Y839D01*
X2963Y838D02*
X2979Y838D01*
X3019Y838D02*
X3036Y838D01*
X3061Y838D02*
X3078Y838D01*
X3118Y838D02*
X3134Y838D01*
X3160Y838D02*
X3176Y838D01*
X3216Y838D02*
X3233Y838D01*
X3563Y838D02*
X3579Y838D01*
X3619Y838D02*
X3636Y838D01*
X3661Y838D02*
X3678Y838D01*
X3717Y838D02*
X3734Y838D01*
X3759Y838D02*
X3776Y838D01*
X3816Y838D02*
X3832Y838D01*
X4163Y838D02*
X4179Y838D01*
X4219Y838D02*
X4236Y838D01*
X4261Y838D02*
X4278Y838D01*
X4317Y838D02*
X4334Y838D01*
X4359Y838D02*
X4376Y838D01*
X4416Y838D02*
X4432Y838D01*
X2963Y837D02*
X2979Y837D01*
X3019Y837D02*
X3036Y837D01*
X3061Y837D02*
X3078Y837D01*
X3117Y837D02*
X3134Y837D01*
X3160Y837D02*
X3176Y837D01*
X3216Y837D02*
X3233Y837D01*
X3563Y837D02*
X3579Y837D01*
X3619Y837D02*
X3636Y837D01*
X3661Y837D02*
X3678Y837D01*
X3717Y837D02*
X3734Y837D01*
X3759Y837D02*
X3776Y837D01*
X3816Y837D02*
X3832Y837D01*
X4163Y837D02*
X4179Y837D01*
X4219Y837D02*
X4236Y837D01*
X4261Y837D02*
X4278Y837D01*
X4317Y837D02*
X4334Y837D01*
X4359Y837D02*
X4376Y837D01*
X4416Y837D02*
X4432Y837D01*
X2963Y836D02*
X2980Y836D01*
X3019Y836D02*
X3036Y836D01*
X3061Y836D02*
X3078Y836D01*
X3117Y836D02*
X3134Y836D01*
X3160Y836D02*
X3177Y836D01*
X3215Y836D02*
X3233Y836D01*
X3563Y836D02*
X3580Y836D01*
X3619Y836D02*
X3636Y836D01*
X3661Y836D02*
X3678Y836D01*
X3717Y836D02*
X3734Y836D01*
X3759Y836D02*
X3776Y836D01*
X3815Y836D02*
X3832Y836D01*
X4163Y836D02*
X4180Y836D01*
X4219Y836D02*
X4236Y836D01*
X4261Y836D02*
X4278Y836D01*
X4317Y836D02*
X4334Y836D01*
X4359Y836D02*
X4376Y836D01*
X4415Y836D02*
X4432Y836D01*
X2963Y835D02*
X2980Y835D01*
X3018Y835D02*
X3036Y835D01*
X3061Y835D02*
X3078Y835D01*
X3117Y835D02*
X3134Y835D01*
X3160Y835D02*
X3177Y835D01*
X3215Y835D02*
X3233Y835D01*
X3563Y835D02*
X3580Y835D01*
X3618Y835D02*
X3636Y835D01*
X3661Y835D02*
X3678Y835D01*
X3717Y835D02*
X3734Y835D01*
X3759Y835D02*
X3777Y835D01*
X3815Y835D02*
X3832Y835D01*
X4163Y835D02*
X4180Y835D01*
X4218Y835D02*
X4236Y835D01*
X4261Y835D02*
X4278Y835D01*
X4317Y835D02*
X4334Y835D01*
X4359Y835D02*
X4377Y835D01*
X4415Y835D02*
X4432Y835D01*
X2963Y834D02*
X2980Y834D01*
X3018Y834D02*
X3036Y834D01*
X3061Y834D02*
X3079Y834D01*
X3116Y834D02*
X3134Y834D01*
X3160Y834D02*
X3177Y834D01*
X3215Y834D02*
X3233Y834D01*
X3563Y834D02*
X3580Y834D01*
X3618Y834D02*
X3636Y834D01*
X3661Y834D02*
X3679Y834D01*
X3716Y834D02*
X3734Y834D01*
X3759Y834D02*
X3777Y834D01*
X3815Y834D02*
X3832Y834D01*
X4163Y834D02*
X4180Y834D01*
X4218Y834D02*
X4236Y834D01*
X4261Y834D02*
X4279Y834D01*
X4316Y834D02*
X4334Y834D01*
X4359Y834D02*
X4377Y834D01*
X4415Y834D02*
X4432Y834D01*
X2963Y833D02*
X2981Y833D01*
X3018Y833D02*
X3036Y833D01*
X3061Y833D02*
X3079Y833D01*
X3116Y833D02*
X3134Y833D01*
X3160Y833D02*
X3178Y833D01*
X3214Y833D02*
X3233Y833D01*
X3563Y833D02*
X3581Y833D01*
X3618Y833D02*
X3636Y833D01*
X3661Y833D02*
X3679Y833D01*
X3716Y833D02*
X3734Y833D01*
X3759Y833D02*
X3778Y833D01*
X3814Y833D02*
X3832Y833D01*
X4163Y833D02*
X4181Y833D01*
X4217Y833D02*
X4236Y833D01*
X4261Y833D02*
X4279Y833D01*
X4316Y833D02*
X4334Y833D01*
X4359Y833D02*
X4378Y833D01*
X4414Y833D02*
X4432Y833D01*
X2963Y832D02*
X2981Y832D01*
X3017Y832D02*
X3036Y832D01*
X3061Y832D02*
X3080Y832D01*
X3115Y832D02*
X3134Y832D01*
X3160Y832D02*
X3178Y832D01*
X3214Y832D02*
X3233Y832D01*
X3563Y832D02*
X3581Y832D01*
X3617Y832D02*
X3636Y832D01*
X3661Y832D02*
X3680Y832D01*
X3715Y832D02*
X3734Y832D01*
X3759Y832D02*
X3778Y832D01*
X3814Y832D02*
X3832Y832D01*
X4163Y832D02*
X4181Y832D01*
X4217Y832D02*
X4236Y832D01*
X4261Y832D02*
X4280Y832D01*
X4315Y832D02*
X4334Y832D01*
X4359Y832D02*
X4378Y832D01*
X4414Y832D02*
X4432Y832D01*
X2963Y831D02*
X2982Y831D01*
X3016Y831D02*
X3036Y831D01*
X3061Y831D02*
X3080Y831D01*
X3115Y831D02*
X3134Y831D01*
X3160Y831D02*
X3179Y831D01*
X3213Y831D02*
X3233Y831D01*
X3563Y831D02*
X3582Y831D01*
X3616Y831D02*
X3636Y831D01*
X3661Y831D02*
X3680Y831D01*
X3715Y831D02*
X3734Y831D01*
X3759Y831D02*
X3779Y831D01*
X3813Y831D02*
X3832Y831D01*
X4163Y831D02*
X4182Y831D01*
X4216Y831D02*
X4236Y831D01*
X4261Y831D02*
X4280Y831D01*
X4315Y831D02*
X4334Y831D01*
X4359Y831D02*
X4379Y831D01*
X4413Y831D02*
X4432Y831D01*
X2963Y830D02*
X2983Y830D01*
X3016Y830D02*
X3036Y830D01*
X3061Y830D02*
X3081Y830D01*
X3114Y830D02*
X3134Y830D01*
X3160Y830D02*
X3179Y830D01*
X3213Y830D02*
X3233Y830D01*
X3563Y830D02*
X3582Y830D01*
X3616Y830D02*
X3636Y830D01*
X3661Y830D02*
X3681Y830D01*
X3714Y830D02*
X3734Y830D01*
X3759Y830D02*
X3779Y830D01*
X3813Y830D02*
X3832Y830D01*
X4163Y830D02*
X4182Y830D01*
X4216Y830D02*
X4236Y830D01*
X4261Y830D02*
X4281Y830D01*
X4314Y830D02*
X4334Y830D01*
X4359Y830D02*
X4379Y830D01*
X4413Y830D02*
X4432Y830D01*
X2963Y829D02*
X2983Y829D01*
X3015Y829D02*
X3036Y829D01*
X3061Y829D02*
X3082Y829D01*
X3113Y829D02*
X3134Y829D01*
X3160Y829D02*
X3180Y829D01*
X3212Y829D02*
X3233Y829D01*
X3563Y829D02*
X3583Y829D01*
X3615Y829D02*
X3636Y829D01*
X3661Y829D02*
X3682Y829D01*
X3713Y829D02*
X3734Y829D01*
X3759Y829D02*
X3780Y829D01*
X3812Y829D02*
X3832Y829D01*
X4163Y829D02*
X4183Y829D01*
X4215Y829D02*
X4236Y829D01*
X4261Y829D02*
X4282Y829D01*
X4313Y829D02*
X4334Y829D01*
X4359Y829D02*
X4380Y829D01*
X4412Y829D02*
X4432Y829D01*
X2963Y828D02*
X2984Y828D01*
X3014Y828D02*
X3036Y828D01*
X3061Y828D02*
X3083Y828D01*
X3113Y828D02*
X3134Y828D01*
X3160Y828D02*
X3181Y828D01*
X3211Y828D02*
X3233Y828D01*
X3563Y828D02*
X3584Y828D01*
X3614Y828D02*
X3636Y828D01*
X3661Y828D02*
X3682Y828D01*
X3713Y828D02*
X3734Y828D01*
X3759Y828D02*
X3781Y828D01*
X3811Y828D02*
X3832Y828D01*
X4163Y828D02*
X4184Y828D01*
X4214Y828D02*
X4236Y828D01*
X4261Y828D02*
X4282Y828D01*
X4313Y828D02*
X4334Y828D01*
X4359Y828D02*
X4381Y828D01*
X4411Y828D02*
X4432Y828D01*
X2963Y827D02*
X2985Y827D01*
X3013Y827D02*
X3036Y827D01*
X3061Y827D02*
X3084Y827D01*
X3112Y827D02*
X3134Y827D01*
X3160Y827D02*
X3182Y827D01*
X3210Y827D02*
X3233Y827D01*
X3563Y827D02*
X3585Y827D01*
X3613Y827D02*
X3636Y827D01*
X3661Y827D02*
X3683Y827D01*
X3712Y827D02*
X3734Y827D01*
X3759Y827D02*
X3782Y827D01*
X3810Y827D02*
X3832Y827D01*
X4163Y827D02*
X4185Y827D01*
X4213Y827D02*
X4236Y827D01*
X4261Y827D02*
X4283Y827D01*
X4312Y827D02*
X4334Y827D01*
X4359Y827D02*
X4382Y827D01*
X4410Y827D02*
X4432Y827D01*
X2963Y826D02*
X2986Y826D01*
X3012Y826D02*
X3036Y826D01*
X3061Y826D02*
X3085Y826D01*
X3111Y826D02*
X3134Y826D01*
X3160Y826D02*
X3183Y826D01*
X3209Y826D02*
X3233Y826D01*
X3563Y826D02*
X3586Y826D01*
X3612Y826D02*
X3636Y826D01*
X3661Y826D02*
X3685Y826D01*
X3710Y826D02*
X3734Y826D01*
X3759Y826D02*
X3783Y826D01*
X3809Y826D02*
X3832Y826D01*
X4163Y826D02*
X4186Y826D01*
X4212Y826D02*
X4236Y826D01*
X4261Y826D02*
X4285Y826D01*
X4310Y826D02*
X4334Y826D01*
X4359Y826D02*
X4383Y826D01*
X4409Y826D02*
X4432Y826D01*
X2963Y825D02*
X2988Y825D01*
X3011Y825D02*
X3036Y825D01*
X3061Y825D02*
X3086Y825D01*
X3109Y825D02*
X3134Y825D01*
X3160Y825D02*
X3184Y825D01*
X3208Y825D02*
X3233Y825D01*
X3563Y825D02*
X3588Y825D01*
X3611Y825D02*
X3636Y825D01*
X3661Y825D02*
X3686Y825D01*
X3709Y825D02*
X3734Y825D01*
X3759Y825D02*
X3784Y825D01*
X3808Y825D02*
X3832Y825D01*
X4163Y825D02*
X4187Y825D01*
X4211Y825D02*
X4236Y825D01*
X4261Y825D02*
X4286Y825D01*
X4309Y825D02*
X4334Y825D01*
X4359Y825D02*
X4384Y825D01*
X4408Y825D02*
X4432Y825D01*
X2963Y824D02*
X2989Y824D01*
X3009Y824D02*
X3036Y824D01*
X3061Y824D02*
X3088Y824D01*
X3108Y824D02*
X3134Y824D01*
X3160Y824D02*
X3186Y824D01*
X3206Y824D02*
X3233Y824D01*
X3563Y824D02*
X3589Y824D01*
X3609Y824D02*
X3636Y824D01*
X3661Y824D02*
X3688Y824D01*
X3708Y824D02*
X3734Y824D01*
X3759Y824D02*
X3786Y824D01*
X3806Y824D02*
X3832Y824D01*
X4163Y824D02*
X4189Y824D01*
X4209Y824D02*
X4236Y824D01*
X4261Y824D02*
X4287Y824D01*
X4307Y824D02*
X4334Y824D01*
X4359Y824D02*
X4386Y824D01*
X4406Y824D02*
X4432Y824D01*
X2963Y823D02*
X2991Y823D01*
X3007Y823D02*
X3036Y823D01*
X3061Y823D02*
X3090Y823D01*
X3106Y823D02*
X3134Y823D01*
X3160Y823D02*
X3188Y823D01*
X3204Y823D02*
X3233Y823D01*
X3563Y823D02*
X3591Y823D01*
X3607Y823D02*
X3636Y823D01*
X3661Y823D02*
X3690Y823D01*
X3705Y823D02*
X3734Y823D01*
X3759Y823D02*
X3788Y823D01*
X3804Y823D02*
X3832Y823D01*
X4163Y823D02*
X4191Y823D01*
X4207Y823D02*
X4236Y823D01*
X4261Y823D02*
X4290Y823D01*
X4305Y823D02*
X4334Y823D01*
X4359Y823D02*
X4388Y823D01*
X4404Y823D02*
X4432Y823D01*
X2963Y822D02*
X2995Y822D01*
X3004Y822D02*
X3036Y822D01*
X3061Y822D02*
X3093Y822D01*
X3102Y822D02*
X3134Y822D01*
X3160Y822D02*
X3191Y822D01*
X3201Y822D02*
X3233Y822D01*
X3563Y822D02*
X3594Y822D01*
X3604Y822D02*
X3636Y822D01*
X3661Y822D02*
X3693Y822D01*
X3702Y822D02*
X3734Y822D01*
X3759Y822D02*
X3791Y822D01*
X3801Y822D02*
X3832Y822D01*
X4163Y822D02*
X4194Y822D01*
X4204Y822D02*
X4236Y822D01*
X4261Y822D02*
X4293Y822D01*
X4302Y822D02*
X4334Y822D01*
X4359Y822D02*
X4391Y822D01*
X4401Y822D02*
X4432Y822D01*
X2963Y821D02*
X3036Y821D01*
X3061Y821D02*
X3134Y821D01*
X3160Y821D02*
X3233Y821D01*
X3563Y821D02*
X3636Y821D01*
X3661Y821D02*
X3734Y821D01*
X3759Y821D02*
X3832Y821D01*
X4163Y821D02*
X4236Y821D01*
X4261Y821D02*
X4334Y821D01*
X4359Y821D02*
X4432Y821D01*
X2963Y820D02*
X3036Y820D01*
X3061Y820D02*
X3134Y820D01*
X3160Y820D02*
X3233Y820D01*
X3563Y820D02*
X3636Y820D01*
X3661Y820D02*
X3734Y820D01*
X3759Y820D02*
X3832Y820D01*
X4163Y820D02*
X4236Y820D01*
X4261Y820D02*
X4334Y820D01*
X4359Y820D02*
X4432Y820D01*
X2963Y819D02*
X3036Y819D01*
X3061Y819D02*
X3134Y819D01*
X3160Y819D02*
X3233Y819D01*
X3563Y819D02*
X3636Y819D01*
X3661Y819D02*
X3734Y819D01*
X3759Y819D02*
X3832Y819D01*
X4163Y819D02*
X4236Y819D01*
X4261Y819D02*
X4334Y819D01*
X4359Y819D02*
X4432Y819D01*
X2963Y818D02*
X3036Y818D01*
X3061Y818D02*
X3134Y818D01*
X3160Y818D02*
X3233Y818D01*
X3563Y818D02*
X3636Y818D01*
X3661Y818D02*
X3734Y818D01*
X3759Y818D02*
X3832Y818D01*
X4163Y818D02*
X4236Y818D01*
X4261Y818D02*
X4334Y818D01*
X4359Y818D02*
X4432Y818D01*
X2963Y817D02*
X3036Y817D01*
X3061Y817D02*
X3134Y817D01*
X3160Y817D02*
X3233Y817D01*
X3563Y817D02*
X3636Y817D01*
X3661Y817D02*
X3734Y817D01*
X3759Y817D02*
X3832Y817D01*
X4163Y817D02*
X4236Y817D01*
X4261Y817D02*
X4334Y817D01*
X4359Y817D02*
X4432Y817D01*
X2963Y816D02*
X3036Y816D01*
X3061Y816D02*
X3134Y816D01*
X3160Y816D02*
X3233Y816D01*
X3563Y816D02*
X3636Y816D01*
X3661Y816D02*
X3734Y816D01*
X3759Y816D02*
X3832Y816D01*
X4163Y816D02*
X4236Y816D01*
X4261Y816D02*
X4334Y816D01*
X4359Y816D02*
X4432Y816D01*
X2963Y815D02*
X3036Y815D01*
X3061Y815D02*
X3134Y815D01*
X3160Y815D02*
X3233Y815D01*
X3563Y815D02*
X3636Y815D01*
X3661Y815D02*
X3734Y815D01*
X3759Y815D02*
X3832Y815D01*
X4163Y815D02*
X4236Y815D01*
X4261Y815D02*
X4334Y815D01*
X4359Y815D02*
X4432Y815D01*
X2963Y814D02*
X3036Y814D01*
X3061Y814D02*
X3134Y814D01*
X3160Y814D02*
X3233Y814D01*
X3563Y814D02*
X3636Y814D01*
X3661Y814D02*
X3734Y814D01*
X3759Y814D02*
X3832Y814D01*
X4163Y814D02*
X4236Y814D01*
X4261Y814D02*
X4334Y814D01*
X4359Y814D02*
X4432Y814D01*
X2963Y813D02*
X3036Y813D01*
X3061Y813D02*
X3134Y813D01*
X3160Y813D02*
X3233Y813D01*
X3563Y813D02*
X3636Y813D01*
X3661Y813D02*
X3734Y813D01*
X3759Y813D02*
X3832Y813D01*
X4163Y813D02*
X4236Y813D01*
X4261Y813D02*
X4334Y813D01*
X4359Y813D02*
X4432Y813D01*
X2963Y812D02*
X3036Y812D01*
X3061Y812D02*
X3134Y812D01*
X3160Y812D02*
X3233Y812D01*
X3563Y812D02*
X3636Y812D01*
X3661Y812D02*
X3734Y812D01*
X3759Y812D02*
X3832Y812D01*
X4163Y812D02*
X4236Y812D01*
X4261Y812D02*
X4334Y812D01*
X4359Y812D02*
X4432Y812D01*
X2963Y811D02*
X3036Y811D01*
X3061Y811D02*
X3134Y811D01*
X3160Y811D02*
X3233Y811D01*
X3563Y811D02*
X3636Y811D01*
X3661Y811D02*
X3734Y811D01*
X3759Y811D02*
X3832Y811D01*
X4163Y811D02*
X4236Y811D01*
X4261Y811D02*
X4334Y811D01*
X4359Y811D02*
X4432Y811D01*
X2963Y810D02*
X3036Y810D01*
X3061Y810D02*
X3134Y810D01*
X3160Y810D02*
X3233Y810D01*
X3563Y810D02*
X3636Y810D01*
X3661Y810D02*
X3734Y810D01*
X3759Y810D02*
X3832Y810D01*
X4163Y810D02*
X4236Y810D01*
X4261Y810D02*
X4334Y810D01*
X4359Y810D02*
X4432Y810D01*
X2963Y809D02*
X3036Y809D01*
X3061Y809D02*
X3134Y809D01*
X3160Y809D02*
X3233Y809D01*
X3563Y809D02*
X3636Y809D01*
X3661Y809D02*
X3734Y809D01*
X3759Y809D02*
X3832Y809D01*
X4163Y809D02*
X4236Y809D01*
X4261Y809D02*
X4334Y809D01*
X4359Y809D02*
X4432Y809D01*
X2963Y808D02*
X3036Y808D01*
X3061Y808D02*
X3134Y808D01*
X3160Y808D02*
X3233Y808D01*
X3563Y808D02*
X3636Y808D01*
X3661Y808D02*
X3734Y808D01*
X3759Y808D02*
X3832Y808D01*
X4163Y808D02*
X4236Y808D01*
X4261Y808D02*
X4334Y808D01*
X4359Y808D02*
X4432Y808D01*
X2963Y807D02*
X3036Y807D01*
X3061Y807D02*
X3134Y807D01*
X3160Y807D02*
X3233Y807D01*
X3563Y807D02*
X3636Y807D01*
X3661Y807D02*
X3734Y807D01*
X3759Y807D02*
X3832Y807D01*
X4163Y807D02*
X4236Y807D01*
X4261Y807D02*
X4334Y807D01*
X4359Y807D02*
X4432Y807D01*
X2963Y806D02*
X3036Y806D01*
X3061Y806D02*
X3134Y806D01*
X3160Y806D02*
X3233Y806D01*
X3563Y806D02*
X3636Y806D01*
X3661Y806D02*
X3734Y806D01*
X3759Y806D02*
X3832Y806D01*
X4163Y806D02*
X4236Y806D01*
X4261Y806D02*
X4334Y806D01*
X4359Y806D02*
X4432Y806D01*
X2963Y805D02*
X3036Y805D01*
X3061Y805D02*
X3134Y805D01*
X3160Y805D02*
X3233Y805D01*
X3563Y805D02*
X3636Y805D01*
X3661Y805D02*
X3734Y805D01*
X3759Y805D02*
X3832Y805D01*
X4163Y805D02*
X4236Y805D01*
X4261Y805D02*
X4334Y805D01*
X4359Y805D02*
X4432Y805D01*
D02*
G04 End of Copper1*
M02*